# xmcd CD database file
#
# Track frame offsets:
#	180
#	9663
#	26242
#	43104
#	68373
#	92619
#	115652
#	141335
#	151431
#	169923
#	186651
#	213349
#	223262
#	232370
#
# Disc length: 3320 seconds
#
# Revision: 0
# Processed by: cddbd v1.4PL0 Copyright (c) Steve Scherf et al.
# Submitted via: CDex 1.50Beta7
#
DISCID=d20cf60e
DTITLE=Romani - Romani
DYEAR=1900
DGENRE=Jazz
TTITLE0=Berensdans
TTITLE1=Ma hum matto
TTITLE2=Djine tu nog
TTITLE3=Les deus guitares
TTITLE4=Adieu Lacheben
TTITLE5=Tu djalal
TTITLE6=Letschto Kurko
TTITLE7=Valse a Tsavele
TTITLE8=Me schunowa
TTITLE9=Devel
TTITLE10=Man hi tschi
TTITLE11=Dui dui
TTITLE12=Berendans
TTITLE13=His I molo
EXTD=
EXTT0=
EXTT1=
EXTT2=
EXTT3=
EXTT4=
EXTT5=
EXTT6=
EXTT7=
EXTT8=
EXTT9=
EXTT10=
EXTT11=
EXTT12=
EXTT13=
PLAYORDER=
